<mxfile host="app.diagrams.net" modified="2023-05-29T04:16:54.912Z" agent="Mozilla/5.0 (X11; Linux x86_64) AppleWebKit/537.36 (KHTML, like Gecko) Chrome/113.0.0.0 Safari/537.36" etag="Iunll5BfjOMJvmJOZT5K" version="21.3.5" type="github">
  <diagram name="Page-1" id="L5KUvlnd6IKGIUpUG8Jc">
    <mxGraphModel dx="1434" dy="714" grid="1" gridSize="10" guides="1" tooltips="1" connect="1" arrows="1" fold="1" page="1" pageScale="1" pageWidth="850" pageHeight="1100" math="0" shadow="0">
      <root>
        <mxCell id="0" />
        <mxCell id="1" parent="0" />
        <mxCell id="VAYAE0Usnz0vZ4ElcBcX-1" value="Хэрэглэгч" style="shape=umlActor;verticalLabelPosition=bottom;verticalAlign=top;html=1;outlineConnect=0;" vertex="1" parent="1">
          <mxGeometry x="40" y="160" width="30" height="60" as="geometry" />
        </mxCell>
        <mxCell id="VAYAE0Usnz0vZ4ElcBcX-2" style="edgeStyle=orthogonalEdgeStyle;rounded=0;orthogonalLoop=1;jettySize=auto;html=1;exitX=1;exitY=0.25;exitDx=0;exitDy=0;entryX=0;entryY=0.25;entryDx=0;entryDy=0;" edge="1" parent="1" source="VAYAE0Usnz0vZ4ElcBcX-3" target="VAYAE0Usnz0vZ4ElcBcX-9">
          <mxGeometry relative="1" as="geometry" />
        </mxCell>
        <mxCell id="VAYAE0Usnz0vZ4ElcBcX-3" value="" style="rounded=0;whiteSpace=wrap;html=1;fillColor=#9999FF;" vertex="1" parent="1">
          <mxGeometry x="50" y="240" width="10" height="160" as="geometry" />
        </mxCell>
        <mxCell id="VAYAE0Usnz0vZ4ElcBcX-4" style="edgeStyle=orthogonalEdgeStyle;rounded=0;orthogonalLoop=1;jettySize=auto;html=1;exitX=0.5;exitY=1;exitDx=0;exitDy=0;entryX=0.5;entryY=0;entryDx=0;entryDy=0;dashed=1;endArrow=none;endFill=0;" edge="1" parent="1" source="VAYAE0Usnz0vZ4ElcBcX-5" target="VAYAE0Usnz0vZ4ElcBcX-9">
          <mxGeometry relative="1" as="geometry" />
        </mxCell>
        <mxCell id="VAYAE0Usnz0vZ4ElcBcX-5" value="Десктоп&lt;br&gt;интерфейс" style="rounded=0;whiteSpace=wrap;html=1;fillColor=#9999FF;" vertex="1" parent="1">
          <mxGeometry x="240" y="160" width="80" height="40" as="geometry" />
        </mxCell>
        <mxCell id="VAYAE0Usnz0vZ4ElcBcX-6" style="edgeStyle=orthogonalEdgeStyle;rounded=0;orthogonalLoop=1;jettySize=auto;html=1;exitX=0.5;exitY=1;exitDx=0;exitDy=0;entryX=0.5;entryY=0;entryDx=0;entryDy=0;dashed=1;endArrow=none;endFill=0;" edge="1" parent="1" source="VAYAE0Usnz0vZ4ElcBcX-7" target="VAYAE0Usnz0vZ4ElcBcX-14">
          <mxGeometry relative="1" as="geometry" />
        </mxCell>
        <mxCell id="VAYAE0Usnz0vZ4ElcBcX-7" value="API сервер" style="rounded=0;whiteSpace=wrap;html=1;fillColor=#9999FF;" vertex="1" parent="1">
          <mxGeometry x="400" y="160" width="80" height="40" as="geometry" />
        </mxCell>
        <mxCell id="VAYAE0Usnz0vZ4ElcBcX-8" style="edgeStyle=orthogonalEdgeStyle;rounded=0;orthogonalLoop=1;jettySize=auto;html=1;exitX=1;exitY=0.5;exitDx=0;exitDy=0;" edge="1" parent="1" source="VAYAE0Usnz0vZ4ElcBcX-9">
          <mxGeometry relative="1" as="geometry">
            <mxPoint x="430" y="320" as="targetPoint" />
          </mxGeometry>
        </mxCell>
        <mxCell id="VAYAE0Usnz0vZ4ElcBcX-9" value="" style="rounded=0;whiteSpace=wrap;html=1;fillColor=#9999FF;" vertex="1" parent="1">
          <mxGeometry x="275" y="240" width="10" height="160" as="geometry" />
        </mxCell>
        <mxCell id="VAYAE0Usnz0vZ4ElcBcX-10" style="edgeStyle=orthogonalEdgeStyle;rounded=0;orthogonalLoop=1;jettySize=auto;html=1;exitX=0.5;exitY=1;exitDx=0;exitDy=0;entryX=0.5;entryY=0;entryDx=0;entryDy=0;dashed=1;endArrow=none;endFill=0;" edge="1" parent="1" source="VAYAE0Usnz0vZ4ElcBcX-11" target="VAYAE0Usnz0vZ4ElcBcX-16">
          <mxGeometry relative="1" as="geometry" />
        </mxCell>
        <mxCell id="VAYAE0Usnz0vZ4ElcBcX-11" value="Өгөгдлийн сан" style="rounded=0;whiteSpace=wrap;html=1;fillColor=#9999FF;" vertex="1" parent="1">
          <mxGeometry x="560" y="160" width="80" height="40" as="geometry" />
        </mxCell>
        <mxCell id="VAYAE0Usnz0vZ4ElcBcX-12" value="1. Хуваацлах имейл оруулаж &lt;br&gt;хуваалцах товч дээр дарах" style="text;strokeColor=none;align=center;fillColor=none;html=1;verticalAlign=middle;whiteSpace=wrap;rounded=0;" vertex="1" parent="1">
          <mxGeometry x="50" y="250" width="240" height="30" as="geometry" />
        </mxCell>
        <mxCell id="VAYAE0Usnz0vZ4ElcBcX-13" style="edgeStyle=orthogonalEdgeStyle;rounded=0;orthogonalLoop=1;jettySize=auto;html=1;exitX=1;exitY=0.75;exitDx=0;exitDy=0;" edge="1" parent="1" source="VAYAE0Usnz0vZ4ElcBcX-14">
          <mxGeometry relative="1" as="geometry">
            <mxPoint x="590" y="360" as="targetPoint" />
          </mxGeometry>
        </mxCell>
        <mxCell id="VAYAE0Usnz0vZ4ElcBcX-14" value="" style="rounded=0;whiteSpace=wrap;html=1;fillColor=#9999FF;" vertex="1" parent="1">
          <mxGeometry x="435" y="240" width="10" height="160" as="geometry" />
        </mxCell>
        <mxCell id="VAYAE0Usnz0vZ4ElcBcX-15" value="2. Файлын ID болон &lt;br&gt;имейл явлуулах" style="text;strokeColor=none;align=center;fillColor=none;html=1;verticalAlign=middle;whiteSpace=wrap;rounded=0;" vertex="1" parent="1">
          <mxGeometry x="275" y="280" width="170" height="30" as="geometry" />
        </mxCell>
        <mxCell id="VAYAE0Usnz0vZ4ElcBcX-16" value="" style="rounded=0;whiteSpace=wrap;html=1;fillColor=#9999FF;" vertex="1" parent="1">
          <mxGeometry x="595" y="240" width="10" height="160" as="geometry" />
        </mxCell>
        <mxCell id="VAYAE0Usnz0vZ4ElcBcX-17" value="2. Имэйлын хэрлэгийн&amp;nbsp;" style="text;strokeColor=none;align=center;fillColor=none;html=1;verticalAlign=middle;whiteSpace=wrap;rounded=0;" vertex="1" parent="1">
          <mxGeometry x="445" y="320" width="155" height="30" as="geometry" />
        </mxCell>
      </root>
    </mxGraphModel>
  </diagram>
</mxfile>
